---
title: 费翔.2015-人【FXTOUCHED】【WAV+CUE】
date: 2023-04-17 10:06:44
categories: WAV车载音乐、镜像
tags: 华语中文
---
# 费翔.2015-人【FXTOUCHED】【WAV+CUE】

音乐类型: 流行音乐/Pop
发行地区: 中国大陆
歌手类型: 华语男歌手
华语男歌手: 费翔
ISRC编号: 4715202208807
存储介质: CD
出版社名称: 丰华唱片
REM GENRE POP
REM DATE 2015
PERFORMER "费翔"
TITLE "人"
FILE "费翔.-.[人](2015)[WAV].wav" WAVE
TRACK 01 AUDIO
TITLE "I’ll Be Your Man"
PERFORMER "费翔"
INDEX 01 00:00:00
TRACK 02 AUDIO
TITLE "在每一刻"
PERFORMER "费翔"
INDEX 01 04:26:25
TRACK 03 AUDIO
TITLE "对话"
PERFORMER "费翔"
INDEX 01 08:54:22
TRACK 04 AUDIO
TITLE "过去式"
PERFORMER "费翔"
INDEX 01 12:28:36
TRACK 05 AUDIO
TITLE "旋涡"
PERFORMER "费翔"
INDEX 01 16:22:00
TRACK 06 AUDIO
TITLE "如果还有如果"
PERFORMER "费翔"
INDEX 01 20:26:60
TRACK 07 AUDIO
TITLE "你"
PERFORMER "费翔"
INDEX 01 24:35:40
TRACK 08 AUDIO
TITLE "天边"
PERFORMER "费翔"
INDEX 01 29:53:03
TRACK 09 AUDIO
TITLE "虚幻之城"
PERFORMER "费翔"
INDEX 01 34:09:38
TRACK 10 AUDIO
TITLE "一个人"
PERFORMER "费翔"
INDEX 01 38:01:15
TRACK 11 AUDIO
TITLE "谎"
PERFORMER "费翔"
INDEX 01 41:27:61
TRACK 12 AUDIO
TITLE "I’ll Be Your Man(remix版)"
PERFORMER "费翔"
INDEX 01 45:29:13
费翔.2015 - 人【FX TOUCHED】【WAV+CUE】.rar: https://url27.ctfile.com/f/9388027-840450414-76f8d1?p=559675
(访问密码: 559675)
费玉清: https://url27.ctfile.com/d/9388027-30940496-e88a5d?p=559675
(访问密码: 559675)
费翔CD: https://url27.ctfile.com/d/9388027-32126918-0ee696?p=559675
(访问密码: 559675)
原文：[链接](https://blog.sina.com.cn/s/blog_1647c7e76010311h4.html)